<?xml version="1.0" encoding="UTF-8" standalone="no"?>
<svg
   xmlns:dc="http://purl.org/dc/elements/1.1/"
   xmlns:cc="http://creativecommons.org/ns#"
   xmlns:rdf="http://www.w3.org/1999/02/22-rdf-syntax-ns#"
   xmlns:svg="http://www.w3.org/2000/svg"
   xmlns="http://www.w3.org/2000/svg"
   xmlns:sodipodi="http://sodipodi.sourceforge.net/DTD/sodipodi-0.dtd"
   xmlns:inkscape="http://www.inkscape.org/namespaces/inkscape"
   id="Layer_1"
   version="1.1"
   xml:space="preserve"
   viewBox="0 0 32.049988 32.000002"
   enable-background="new 0 0 91.5 97.6"
   y="0px"
   x="0px"
   sodipodi:docname="cogwheels.svg"
   width="32.049988"
   height="32"
   inkscape:version="0.92.5 (2060ec1f9f, 2020-04-08)"
   inkscape:export-filename="/home/player/Storage/AT_KSP_Plugins/AT_Utils/Unity/Assets/UI/Textures/cogwheels.png"
   inkscape:export-xdpi="96"
   inkscape:export-ydpi="96"><defs
   id="defs15" /><sodipodi:namedview
   pagecolor="#ffffff"
   bordercolor="#666666"
   borderopacity="1"
   objecttolerance="10"
   gridtolerance="10"
   guidetolerance="10"
   inkscape:pageopacity="0"
   inkscape:pageshadow="2"
   inkscape:window-width="1920"
   inkscape:window-height="1055"
   id="namedview13"
   showgrid="false"
   fit-margin-top="2"
   fit-margin-left="2.9"
   fit-margin-right="2.9"
   fit-margin-bottom="2"
   inkscape:zoom="3.4196148"
   inkscape:cx="13.630236"
   inkscape:cy="7.6858585"
   inkscape:window-x="0"
   inkscape:window-y="25"
   inkscape:window-maximized="1"
   inkscape:current-layer="Layer_1" />
	<path
   d="M 27.744265,4.9549162 V 4.9262307 C 27.313937,4.3524595 26.797543,3.8647545 26.195085,3.4057382 v 0.028685 C 25.70738,3.8073741 25.219675,4.2090141 24.760658,4.6106531 24.559838,4.4958995 24.387707,4.4098336 24.215577,4.3237677 23.986068,4.2090141 23.75656,4.0942596 23.498363,4.0368822 23.412296,4.0081967 23.326231,3.9795104 23.240167,3.9795104 23.182786,3.3483623 23.125411,2.717215 23.039346,2.0860669 22.752461,2.0286861 22.465576,2.0286861 22.150002,2 h -0.459017 c -0.286885,0.028685 -0.545082,0.028685 -0.803278,0.086067 -0.08607,0.6024596 -0.143443,1.2336067 -0.172131,1.864755 -0.114755,0 -0.20082,0.028685 -0.315574,0.057381 -0.02868,0 -0.05737,0 -0.08606,0.028685 -0.229513,0.05738 -0.459022,0.1721315 -0.68853,0.286885 C 19.424592,4.40984 19.252461,4.4959049 19.08033,4.6106585 18.592625,4.2090195 18.133609,3.8360681 17.645904,3.434429 L 17.617224,3.405744 C 17.502469,3.491811 17.387716,3.5778749 17.30165,3.6639408 17.100831,3.807383 16.928699,3.979515 16.785257,4.1516458 16.527059,4.381154 16.32624,4.6680394 16.096732,4.9549249 h 0.02868 c 0.372949,0.487705 0.774588,0.9467213 1.176228,1.4344263 -0.114756,0.1721309 -0.229508,0.3729504 -0.315574,0.5450822 -0.114754,0.2295082 -0.20082,0.4877051 -0.258198,0.7172132 -0.05737,0.1147536 -0.08606,0.2295081 -0.08606,0.3155731 -0.631148,0.05738 -1.262296,0.1147543 -1.864755,0.2008193 -0.05738,0.286886 -0.08606,0.573771 -0.08606,0.889345 0,0.430328 0.02868,0.860656 0.114753,1.262295 0.60246,0.05738 1.204918,0.114754 1.836066,0.172131 0,0.114754 0.02868,0.229509 0.08606,0.315574 0.05738,0.258197 0.143443,0.487705 0.258197,0.745902 0.114755,0.20082 0.20082,0.40164 0.344263,0.57377 -0.401638,0.487705 -0.803279,0.946721 -1.176229,1.434427 0.430328,0.602459 0.946721,1.118853 1.54918,1.54918 v -0.02868 c 0.459016,-0.372951 0.946721,-0.774592 1.405738,-1.176229 h 0.02869 c 0.143444,0.08606 0.315574,0.17213 0.459018,0.258196 0.258196,0.114754 0.545081,0.229508 0.803278,0.286886 0.114754,0.02869 0.200819,0.05738 0.286885,0.08606 0.05738,0.60246 0.114755,1.233607 0.200819,1.864755 0.258197,0.02869 0.516395,0.05738 0.80328,0.05738 h 0.430328 c 0.315574,0 0.631148,-0.02868 0.946721,-0.08607 0.05738,-0.60246 0.114754,-1.233607 0.172132,-1.864755 0.08607,-0.02868 0.172131,-0.05738 0.258196,-0.08607 0.258196,-0.05738 0.487705,-0.143443 0.717213,-0.258198 0.20082,-0.08606 0.401639,-0.200818 0.60246,-0.344261 0,0.02868 0,0.02868 0.02868,0.02868 0.459017,0.40164 0.946721,0.80328 1.434426,1.17623 0.08607,-0.05737 0.172131,-0.114753 0.286886,-0.200819 0.172131,-0.143442 0.344263,-0.315575 0.487705,-0.487705 0.258196,-0.258198 0.516393,-0.545083 0.745902,-0.860656 -0.401642,-0.487704 -0.803282,-0.975408 -1.20492,-1.434424 v -0.02868 c 0.08606,-0.143443 0.17213,-0.315574 0.258195,-0.487705 0.08606,-0.229509 0.200821,-0.459017 0.258197,-0.688525 0,-0.02868 0,-0.05738 0.02869,-0.05738 0,-0.114755 0.02868,-0.20082 0.05737,-0.258197 0.631148,-0.05738 1.262296,-0.114755 1.864756,-0.172131 0.05738,-0.286886 0.05738,-0.573772 0.08606,-0.860657 V 8.999992 C 29.121298,8.713102 29.121298,8.426216 29.063908,8.139332 28.461462,8.081962 27.830314,8.024588 27.199166,7.9672109 27.17048,7.881144 27.141795,7.79508 27.141795,7.7090142 27.055728,7.4508173 26.969663,7.1926206 26.854909,6.9344247 26.768842,6.7622929 26.65409,6.5614733 26.568024,6.3893425 c 0.37295,-0.4590164 0.77459,-0.9467214 1.17623,-1.4344263 z m -7.659836,2.3811475 c 0.516392,-0.5450822 1.14754,-0.8032791 1.864753,-0.7745904 0.745902,-0.028685 1.34836,0.2295082 1.893443,0.7745904 0.516394,0.5163936 0.774591,1.1475413 0.774591,1.8647543 0,0.745901 -0.258197,1.348361 -0.774591,1.893442 -0.545083,0.516394 -1.147541,0.77459 -1.893443,0.77459 -0.717213,0 -1.348361,-0.258196 -1.864753,-0.77459 -0.516394,-0.545081 -0.774592,-1.147541 -0.774592,-1.893442 0,-0.717213 0.258198,-1.3483607 0.774592,-1.8647543 z"
   id="path2"
   inkscape:connector-curvature="0"
   style="stroke-width:0.28688526;fill:#ffffff" />
	
	<path
   d="m 14.604919,11.639343 c -0.114755,-0.05738 -0.200819,-0.08606 -0.286886,-0.08606 -0.34426,-0.08607 -0.688523,-0.143443 -1.032787,-0.20082 -0.315573,0.77459 -0.573769,1.520492 -0.831966,2.266394 h -0.516394 c -0.344262,0.02868 -0.659835,0.05738 -0.975409,0.11475 -0.258197,0.02868 -0.516394,0.114755 -0.774591,0.200821 C 9.7278695,13.274589 9.2401646,12.614753 8.7811482,11.983606 l -0.028689,-0.02869 C 8.580328,12.012296 8.4081969,12.069671 8.2647543,12.155737 7.977869,12.27049 7.7196722,12.413933 7.4614755,12.586064 7.0598362,12.786885 6.6868853,13.045081 6.342623,13.360655 v 0.02868 c 0.3442623,0.717214 0.6598361,1.434427 1.0040984,2.15164 -0.2008196,0.200819 -0.3729508,0.372951 -0.545082,0.602459 -0.2295082,0.229508 -0.4303278,0.516394 -0.602459,0.803279 C 6.1131148,17.061467 6.0557381,17.176221 5.998361,17.319664 5.1950822,17.176228 4.3918034,17.032785 3.5885246,16.918032 3.445082,17.262293 3.3016393,17.606556 3.1868853,17.979507 3.0721311,18.553278 2.9573771,19.098358 2.9,19.643441 l 2.2377051,0.860656 v 0.401639 c 0,0.315574 0.028689,0.659836 0.1147542,1.004099 0.028689,0.286885 0.1147541,0.573771 0.2008196,0.860656 -0.6598361,0.459016 -1.2909837,0.918033 -1.9508198,1.405738 0.3442623,0.860655 0.8319672,1.663934 1.4057378,2.409836 h 0.028689 c 0.7172131,-0.344263 1.4344263,-0.659836 2.180328,-1.004098 0.1721312,0.17213 0.3442624,0.315574 0.5163936,0.487705 0.2581967,0.229508 0.5737705,0.430328 0.9180328,0.631147 0.086066,0.05737 0.2008197,0.114755 0.3155738,0.20082 -0.1434427,0.77459 -0.2581967,1.577869 -0.3729508,2.381148 0.3155738,0.143442 0.6311476,0.258197 0.9754099,0.344263 0.086066,0.02868 0.2581968,0.08606 0.5450818,0.143441 0.401639,0.114754 0.803278,0.172132 1.17623,0.229509 0.315573,-0.77459 0.602458,-1.520492 0.860655,-2.295082 h 0.372952 c 0.344262,0 0.659835,-0.02868 0.975409,-0.08606 0.286885,-0.05738 0.573771,-0.143443 0.860656,-0.229507 0,0 0,0.02868 0.02868,0.02868 0.459017,0.659836 0.946722,1.319672 1.405739,1.979507 0.143442,-0.08607 0.286884,-0.143442 0.401639,-0.200819 0.286886,-0.114754 0.545083,-0.258197 0.803279,-0.401639 0.430327,-0.258196 0.831967,-0.545082 1.204918,-0.860656 -0.315574,-0.745901 -0.659836,-1.463115 -1.004098,-2.209016 0.172131,-0.172131 0.315574,-0.344263 0.487705,-0.516394 0.200819,-0.258196 0.401639,-0.545081 0.57377,-0.803279 0,-0.02868 0.02868,-0.05738 0.02868,-0.08607 0.05738,-0.08606 0.114756,-0.200819 0.172132,-0.286885 0.803279,0.143443 1.606558,0.258197 2.409837,0.40164 0.143442,-0.344263 0.258196,-0.688525 0.37295,-1.061476 0.02868,-0.08606 0.05738,-0.172131 0.08606,-0.286885 0.02868,-0.08607 0.02868,-0.172131 0.08607,-0.286887 0.05737,-0.372949 0.143442,-0.745901 0.17213,-1.090163 -0.745898,-0.315572 -1.520488,-0.573769 -2.26639,-0.860653 v -0.344264 c 0,-0.344262 -0.02868,-0.717213 -0.114753,-1.061475 -0.02868,-0.258197 -0.114755,-0.516394 -0.172132,-0.774591 0.659837,-0.459016 1.319672,-0.946721 1.95082,-1.434426 h 0.02868 c -0.344263,-0.860655 -0.80328,-1.663935 -1.434427,-2.409836 -0.745901,0.315574 -1.463115,0.659836 -2.180328,1.004098 -0.20082,-0.200819 -0.401638,-0.401639 -0.60246,-0.573771 -0.258195,-0.200819 -0.516392,-0.401639 -0.803278,-0.545081 -0.08606,-0.08606 -0.200819,-0.143443 -0.286885,-0.20082 0.114754,-0.803277 0.258197,-1.606557 0.37295,-2.409836 -0.344261,-0.143442 -0.717213,-0.286885 -1.090164,-0.401639 -0.08606,-0.02868 -0.200819,-0.05738 -0.286885,-0.05738 z M 9.2688531,22.368851 C 8.7811482,21.536884 8.6663941,20.676228 8.9245908,19.758196 9.1540991,18.840162 9.699181,18.151637 10.531148,17.663934 c 0.803279,-0.459018 1.692624,-0.573772 2.581967,-0.344263 0.918033,0.258196 1.635246,0.774591 2.094264,1.606557 0.487705,0.831968 0.602458,1.692622 0.344261,2.610656 -0.229507,0.918034 -0.77459,1.606557 -1.577868,2.065574 -0.860657,0.487705 -1.721313,0.602459 -2.610656,0.344263 -0.918033,-0.229508 -1.6352465,-0.774591 -2.0942629,-1.57787 z"
   id="path6"
   inkscape:connector-curvature="0"
   style="stroke-width:0.28688526;fill:#ffffff" />
	
<metadata
   id="metadata10"><rdf:RDF><cc:Work><dc:format>image/svg+xml</dc:format><dc:type
         rdf:resource="http://purl.org/dc/dcmitype/StillImage" /><cc:license
         rdf:resource="http://creativecommons.org/publicdomain/zero/1.0/" /><dc:publisher><cc:Agent
           rdf:about="http://openclipart.org/"><dc:title>Openclipart</dc:title></cc:Agent></dc:publisher><dc:title>Black cogwheels</dc:title><dc:date>2013-09-14T15:51:34</dc:date><dc:description>Black cogwheels</dc:description><dc:source>https://openclipart.org/detail/183435/black-cogwheels-by-liftarn-183435</dc:source><dc:creator><cc:Agent><dc:title>liftarn</dc:title></cc:Agent></dc:creator><dc:subject><rdf:Bag><rdf:li>black</rdf:li><rdf:li>cogwheel</rdf:li><rdf:li>cogwheels</rdf:li><rdf:li>gear</rdf:li><rdf:li>gears</rdf:li></rdf:Bag></dc:subject></cc:Work><cc:License
       rdf:about="http://creativecommons.org/publicdomain/zero/1.0/"><cc:permits
         rdf:resource="http://creativecommons.org/ns#Reproduction" /><cc:permits
         rdf:resource="http://creativecommons.org/ns#Distribution" /><cc:permits
         rdf:resource="http://creativecommons.org/ns#DerivativeWorks" /></cc:License></rdf:RDF></metadata></svg>