<?xml version='1.0' encoding='utf-8'?>
<svg xmlns="http://www.w3.org/2000/svg" width="91.44mm" height="91.44mm" version="1.1" style="shape-rendering:geometricPrecision; text-rendering:geometricPrecision; image-rendering:optimizeQuality; fill-rule:evenodd; clip-rule:evenodd" viewBox="0 0 9144 9144"> <defs> <style type="text/css">  .fil0 {fill:#F0F0F0} .fil1 {fill:#011627;fill-rule:nonzero}  </style> </defs> <g id="Layer_x0020_1"> <metadata id="CorelCorpID_0Corel-Layer"/> <g id="_2744503380960"> <polygon class="fil0" points="0,0 9144,0 9144,9144 0,9144 "/> <path class="fil1" d="M3444 6601l2255 0 0 -3101 -2255 0 0 3101zm-117 -3277l29 0 2431 0 29 0 0 -306 -2489 0 0 306zm2577 176l-29 0 0 3189c0,49 -39,88 -88,88l-2431 0c-49,0 -88,-39 -88,-88l0 -3189 -29 0c-49,0 -88,-39 -88,-88l0 -482c0,-49 39,-88 88,-88l871 0 0 -387c0,-49 39,-88 88,-88l748 0c49,0 88,39 88,88l0 387 870 0c49,0 88,39 88,88l0 482c0,49 -39,88 -88,88zm-2014 552c0,-49 39,-88 88,-88 49,0 88,39 88,88l0 1996c0,49 -39,88 -88,88 -49,0 -88,-39 -88,-88l0 -1996zm1188 0c0,-49 39,-88 88,-88 49,0 88,39 88,88l0 1996c0,49 -39,88 -88,88 -49,0 -88,-39 -88,-88l0 -1996zm-594 0c0,-49 39,-88 88,-88 49,0 88,39 88,88l0 1996c0,49 -39,88 -88,88 -49,0 -88,-39 -88,-88l0 -1996zm-198 -1211l572 0 0 -298 -572 0 0 298z"/> </g> </g> </svg>